HIERARCHY
ROOT hips
{
  OFFSET 0 10.680822821525009 1.3929502295107734
  CHANNELS 6 Xposition Yposition Zposition Yrotation Xrotation Zrotation
  JOINT spine
  {
    OFFSET -7.042017322922631e-31 0.6058489940359625 0
    CHANNELS 3 Yrotation Xrotation Zrotation
    JOINT chest
    {
      OFFSET 0 1.2699794144455032 0
      CHANNELS 3 Yrotation Xrotation Zrotation
      JOINT upperChest
      {
        OFFSET 0 1.217799211677689 0
        CHANNELS 3 Yrotation Xrotation Zrotation
        JOINT neck
        {
          OFFSET 0 1.5248826104153006 0
          CHANNELS 3 Yrotation Xrotation Zrotation
          JOINT head
          {
            OFFSET 0 0.8197772727844447 0
            CHANNELS 3 Yrotation Xrotation Zrotation
            JOINT leftEye
            {
              OFFSET 0.2793952361220866 0.6769952096623495 0.1830357412467788
              CHANNELS 3 Yrotation Xrotation Zrotation
              End Site
              {
                OFFSET 0.2793952361220866 0.6769952096623495 0.1830357412467788
              }
            }
            JOINT rightEye
            {
              OFFSET -0.27939522230689573 0.676995205357064 0.18303631459760622
              CHANNELS 3 Yrotation Xrotation Zrotation
              End Site
              {
                OFFSET -0.27939522230689573 0.676995205357064 0.18303631459760622
              }
            }
          }
        }
        JOINT leftShoulder
        {
          OFFSET 0.41486978509200423 1.1670505408695453 0
          CHANNELS 3 Yrotation Xrotation Zrotation
          JOINT leftUpperArm
          {
            OFFSET 0.9737926108153417 0 0
            CHANNELS 3 Yrotation Xrotation Zrotation
            JOINT leftLowerArm
            {
              OFFSET 2.5269332222665284 0 0
              CHANNELS 3 Yrotation Xrotation Zrotation
              JOINT leftHand
              {
                OFFSET 2.4263782738425914 0 0
                CHANNELS 3 Yrotation Xrotation Zrotation
                JOINT leftIndexProximal
                {
                  OFFSET 0.724320348022514 0.08170607082582437 0.20360061616140124
                  CHANNELS 3 Yrotation Xrotation Zrotation
                  JOINT leftIndexIntermediate
                  {
                    OFFSET 0.36548960630744587 -0.010566596513783999 -0.01414783573280308
                    CHANNELS 3 Yrotation Xrotation Zrotation
                    JOINT leftIndexDistal
                    {
                      OFFSET 0.22502819650693362 -0.007863819831430696 -0.007567681939621526
                      CHANNELS 3 Yrotation Xrotation Zrotation
                      End Site
                      {
                        OFFSET 0.22502819650693362 -0.007863819831430696 -0.007567681939621526
                      }
                    }
                  }
                }
                JOINT leftLittleProximal
                {
                  OFFSET 0.6720322998298205 0.08170601055037707 -0.3230036039466837
                  CHANNELS 3 Yrotation Xrotation Zrotation
                  JOINT leftLittleIntermediate
                  {
                    OFFSET 0.34583592281688713 5.476543019078406e-8 1.3869203337180114e-7
                    CHANNELS 3 Yrotation Xrotation Zrotation
                    JOINT leftLittleDistal
                    {
                      OFFSET 0.19925728062053938 0.003098047439490381 0.0038303983709246925
                      CHANNELS 3 Yrotation Xrotation Zrotation
                      End Site
                      {
                        OFFSET 0.19925728062053938 0.003098047439490381 0.0038303983709246925
                      }
                    }
                  }
                }
                JOINT leftMiddleProximal
                {
                  OFFSET 0.7300436596551069 0.0817073395107144 0.022661722987926763
                  CHANNELS 3 Yrotation Xrotation Zrotation
                  JOINT leftMiddleIntermediate
                  {
                    OFFSET 0.40758254347686607 -0.0000012383587111308714 2.408460318820138e-7
                    CHANNELS 3 Yrotation Xrotation Zrotation
                    JOINT leftMiddleDistal
                    {
                      OFFSET 0.2514490105498507 0.0000013869132886590307 9.738618134136345e-8
                      CHANNELS 3 Yrotation Xrotation Zrotation
                      End Site
                      {
                        OFFSET 0.2514490105498507 0.0000013869132886590307 9.738618134136345e-8
                      }
                    }
                  }
                }
                JOINT leftRingProximal
                {
                  OFFSET 0.7217261161191838 0.08170601902187746 -0.15043395722184966
                  CHANNELS 3 Yrotation Xrotation Zrotation
                  JOINT leftRingIntermediate
                  {
                    OFFSET 0.37808807487521556 0.0000013754022405443322 2.2046919317952884e-7
                    CHANNELS 3 Yrotation Xrotation Zrotation
                    JOINT leftRingDistal
                    {
                      OFFSET 0.21812105442344254 -0.002713483731960231 -0.004991354517454624
                      CHANNELS 3 Yrotation Xrotation Zrotation
                      End Site
                      {
                        OFFSET 0.21812105442344254 -0.002713483731960231 -0.004991354517454624
                      }
                    }
                  }
                }
                JOINT leftThumbProximal
                {
                  OFFSET 0.10793587079521427 -0.1652791240518252 -0.07775251827190094
                  CHANNELS 3 Yrotation Xrotation Zrotation
                  JOINT leftThumbIntermediate
                  {
                    OFFSET 0.40355819082296684 -0.017484006740276614 0.3177776014416309
                    CHANNELS 3 Yrotation Xrotation Zrotation
                    JOINT leftThumbDistal
                    {
                      OFFSET 0.2318764658022603 -0.018510186824293617 0.21396001800186287
                      CHANNELS 3 Yrotation Xrotation Zrotation
                      End Site
                      {
                        OFFSET 0.2318764658022603 -0.018510186824293617 0.21396001800186287
                      }
                    }
                  }
                }
              }
            }
          }
        }
        JOINT rightShoulder
        {
          OFFSET -0.4148697850920044 1.1670505408695453 0
          CHANNELS 3 Yrotation Xrotation Zrotation
          JOINT rightUpperArm
          {
            OFFSET -0.9737926108153414 0 0
            CHANNELS 3 Yrotation Xrotation Zrotation
            JOINT rightLowerArm
            {
              OFFSET -2.5269332222665293 0 0
              CHANNELS 3 Yrotation Xrotation Zrotation
              JOINT rightHand
              {
                OFFSET -2.42637827384259 0 0
                CHANNELS 3 Yrotation Xrotation Zrotation
                JOINT rightIndexProximal
                {
                  OFFSET -0.724320348022514 0.08170607082582437 0.20360061616140124
                  CHANNELS 3 Yrotation Xrotation Zrotation
                  JOINT rightIndexIntermediate
                  {
                    OFFSET -0.36548960630744587 -0.010566596513783999 -0.01414783573280308
                    CHANNELS 3 Yrotation Xrotation Zrotation
                    JOINT rightIndexDistal
                    {
                      OFFSET -0.22502819650693362 -0.007863819831430696 -0.007567681939621526
                      CHANNELS 3 Yrotation Xrotation Zrotation
                      End Site
                      {
                        OFFSET -0.22502819650693362 -0.007863819831430696 -0.007567681939621526
                      }
                    }
                  }
                }
                JOINT rightLittleProximal
                {
                  OFFSET -0.6720322998298205 0.08170601055037707 -0.3230036039466837
                  CHANNELS 3 Yrotation Xrotation Zrotation
                  JOINT rightLittleIntermediate
                  {
                    OFFSET -0.34583592281688713 5.476543019078406e-8 1.3869203337180114e-7
                    CHANNELS 3 Yrotation Xrotation Zrotation
                    JOINT rightLittleDistal
                    {
                      OFFSET -0.19925728062053938 0.003098047439490381 0.0038303983709246925
                      CHANNELS 3 Yrotation Xrotation Zrotation
                      End Site
                      {
                        OFFSET -0.19925728062053938 0.003098047439490381 0.0038303983709246925
                      }
                    }
                  }
                }
                JOINT rightMiddleProximal
                {
                  OFFSET -0.7300436596551069 0.0817073395107144 0.022661722987926763
                  CHANNELS 3 Yrotation Xrotation Zrotation
                  JOINT rightMiddleIntermediate
                  {
                    OFFSET -0.40758254347686607 -0.0000012383587111308714 2.408460318820138e-7
                    CHANNELS 3 Yrotation Xrotation Zrotation
                    JOINT rightMiddleDistal
                    {
                      OFFSET -0.2514490105498507 0.0000013869132886590307 9.738618134136345e-8
                      CHANNELS 3 Yrotation Xrotation Zrotation
                      End Site
                      {
                        OFFSET -0.2514490105498507 0.0000013869132886590307 9.738618134136345e-8
                      }
                    }
                  }
                }
                JOINT rightRingProximal
                {
                  OFFSET -0.7217261161191838 0.08170601902187746 -0.15043395722184966
                  CHANNELS 3 Yrotation Xrotation Zrotation
                  JOINT rightRingIntermediate
                  {
                    OFFSET -0.37808807487521556 0.0000013754022405443322 2.2046919317952884e-7
                    CHANNELS 3 Yrotation Xrotation Zrotation
                    JOINT rightRingDistal
                    {
                      OFFSET -0.21812105442344254 -0.002713483731960231 -0.004991354517454624
                      CHANNELS 3 Yrotation Xrotation Zrotation
                      End Site
                      {
                        OFFSET -0.21812105442344254 -0.002713483731960231 -0.004991354517454624
                      }
                    }
                  }
                }
                JOINT rightThumbProximal
                {
                  OFFSET -0.10793587079521427 -0.1652791240518252 -0.07775251827190094
                  CHANNELS 3 Yrotation Xrotation Zrotation
                  JOINT rightThumbIntermediate
                  {
                    OFFSET -0.40355819082296684 -0.017484006740276614 0.3177776014416309
                    CHANNELS 3 Yrotation Xrotation Zrotation
                    JOINT rightThumbDistal
                    {
                      OFFSET -0.2318764658022603 -0.018510186824293617 0.21396001800186287
                      CHANNELS 3 Yrotation Xrotation Zrotation
                      End Site
                      {
                        OFFSET -0.2318764658022603 -0.018510186824293617 0.21396001800186287
                      }
                    }
                  }
                }
              }
            }
          }
        }
      }
    }
  }
  JOINT leftUpperLeg
  {
    OFFSET 0.8486251390888677 -0.4421577294694363 0
    CHANNELS 3 Yrotation Xrotation Zrotation
    JOINT leftLowerLeg
    {
      OFFSET 0 -4.10147812638609 0
      CHANNELS 3 Yrotation Xrotation Zrotation
      JOINT leftFoot
      {
        OFFSET -0.0002543926476658853 -4.77292286812444 0.007402811231737388
        CHANNELS 3 Yrotation Xrotation Zrotation
        JOINT leftToes
        {
          OFFSET 0 -0.7027875951174846 1.2062924140498823
          CHANNELS 3 Yrotation Xrotation Zrotation
          End Site
          {
            OFFSET 0 -0.7027875951174846 1.2062924140498823
          }
        }
      }
    }
  }
  JOINT rightUpperLeg
  {
    OFFSET -0.8486251390888677 -0.4421577294694363 0
    CHANNELS 3 Yrotation Xrotation Zrotation
    JOINT rightLowerLeg
    {
      OFFSET 0 -4.10147812638609 0
      CHANNELS 3 Yrotation Xrotation Zrotation
      JOINT rightFoot
      {
        OFFSET 0.0002543926476658853 -4.77292286812444 0.007402811231737388
        CHANNELS 3 Yrotation Xrotation Zrotation
        JOINT rightToes
        {
          OFFSET 0 -0.7027875951174846 1.2062924140498823
          CHANNELS 3 Yrotation Xrotation Zrotation
          End Site
          {
            OFFSET 0 -0.7027875951174846 1.2062924140498823
          }
        }
      }
    }
  }
}
MOTION
Frames: 4
Frame Time: 0.03333333333333333
0.24854707717895508 -0.6339974125894621 2.668484926223755 5.1337657587796945 45.4757317869503 1.3039135048753685 4.44049749896041 13.83749584768107 -0.03548425640808332 3.5397283895090834 20.347737450984724 5.38052011866583 0 0 0 -3.088030046694182 -10.389893843047515 3.0670546550112254 -21.712918353446 -68.77313180104414 18.236342351459335 0 0 0 0 0 0 -3.8722389367104015 0.6491854311951069 -3.460876500635777 -50.395774812001946 34.22526873030211 -71.92825011717684 -73.03646082305127 0.5242088041106644 0.7079559904077153 -27.522059352006913 37.650206492417176 62.62839170501275 4.570051925549386 0.3339056127473745 -7.876833760499364 2.5634729575593043 0.3401878146165692 -20.583583491163026 0.6861123599829058 0.0230379885673942 -10.179091078575599 24.74884352675694 -0.5526750881978615 1.7516227452360347 4.696440056266036 2.534738754050802 -66.11668243438508 4.20648665858422 1.6187051657963114 -43.42217404302836 11.786544132908274 1.054544909364142 -8.304075779819623 1.4495696791260633 0.05983422224293009 -7.223904888886153 1.3256883073473547 0.15233143392132112 -12.208734362012635 16.421700423264877 -1.3728434600188157 5.962355676294986 3.501321101645852 1.633070675106393 -41.70445488408148 0.4694193597652106 0.11987843179341193 -5.608297275702931 -39.00972737812491 -12.984798978610547 24.554541068934366 8.825057373474436 -8.866390812026262 28.802284123134786 12.219549118050331 2.7603821906640444 0.557103010548015 -6.988072053926602 -1.1119466887119491 -9.236823595868952 94.3828907651759 -45.30362543626964 -85.70702019941302 71.21358595352376 0.5017659839040043 -0.7006879195349961 -36.71871421262932 37.82337726437417 -59.13212854447112 -5.685623695717763 0.23121832579853321 11.239353081758765 -0.7829977893807156 0.018184526864327186 0.00987724693964608 3.0191041988683547 0.7381699565614732 -21.609300470976684 -9.286123075670757 1.9799685682443289 51.52359999516568 -5.309136019121334 5.647972619577436 102.84158979466018 -3.8899164276851734 0.2921016423061068 63.04538898192974 -8.610673467834694 1.2457180328387603 46.80795462999599 -5.745575143125069 6.338888804709497 106.58393011705978 -4.640393524486317 2.8885452612862204 65.02694285520687 -9.498153892663018 2.318657934966699 50.967821113096925 -4.531836508271944 6.5098265244502596 101.58771830220523 -3.360580075688284 1.6016303145036503 63.88841423713603 14.743446675172091 -19.029546856155804 16.180267635149235 -8.175380531363531 -10.50543300263478 4.961638120434246 16.406714172805437 -15.46677970063496 12.78396277691242 7.231516356814489 -71.19341908682118 -10.582591359795881 5.979371547389603 20.011925135061457 0.4101135577318161 1.1939178964716064 14.317596464159967 5.691598109117772 -0.000003386329455274209 -11.3207491211363 -7.122654273307027e-7 0.7577629289032533 -68.92456486913527 -0.55952120621149 7.860472230067948 16.1319172676771 2.0668876505285776 -0.004098271542817361 7.482668609397914 -2.3778488308222965 1.1955486751395872e-7 -1.3890005894851627 5.692864273652977e-7
0.25409457087516785 -0.6337427815469816 2.648294687271118 5.136874617524669 44.358659111558836 0.993340651865621 4.4901232464538 13.7611875113132 -0.089429577426544 3.563234603238084 19.90926819203217 5.459551823370386 0 0 0 -3.072064590209785 -10.055872501617769 3.184138232811457 -20.28147292316153 -67.84886058382081 16.82461613744509 0 0 0 0 0 0 -3.7937107575680002 0.646893702783651 -3.2860462105487183 -50.57911132433392 34.179186806817825 -72.34368387736625 -73.05575390253105 0.5244589702643078 0.7080332964604111 -27.586561452171516 37.53652949634631 62.265544131135165 4.570051925549386 0.3339056127473745 -7.876833760499364 2.5634729575593043 0.3401878146165692 -20.583583491163026 0.6861123599829058 0.0230379885673942 -10.179091078575599 24.748768748519485 -0.5524643030264723 1.7509908078944654 4.696407836109738 2.5347060652262146 -66.11630740121966 4.206465112642357 1.6186659832947452 -43.42175123868354 11.786495228619094 1.054535409523331 -8.304178797273174 1.4496058462250214 0.05983616324501242 -7.224342881435006 1.3256877738797648 0.15233108707455145 -12.208727686273548 16.421667069796236 -1.3727309430464312 5.961800507594825 3.501293820805215 1.6330731307030113 -41.70438707529276 0.469443531473422 0.11987461648407956 -5.608529118980725 -38.955675800793685 -12.895338021318084 24.37771036607372 8.825145409411556 -8.879830393598867 28.590026532318298 12.16620020376467 2.7482668068326745 0.5438084085286167 -6.380424059895047 -0.9383802753099832 -8.445478381956782 92.49789404705784 -44.92278591452436 -83.24695132003976 71.0242900820282 0.4994546770601248 -0.6998984723911508 -35.94760823735216 37.70148374541191 -58.3157588763074 -5.6831439615971755 0.23226132556034157 11.251189932330647 -0.7828386288100277 0.018206156353631774 0.009996229138655657 3.0192151911973713 0.7382528328447777 -21.611161595468587 -9.311589185019896 2.0079128512989834 51.6374307895572 -5.307114006687202 5.6635512790609175 103.02061113821115 -3.8980012372825366 0.2979375560286419 63.143702653149596 -8.61992607936449 1.2544805830907815 46.85473499655609 -5.743006990775359 6.348120405086961 106.69430077980755 -4.6427028094261065 2.893514999537787 65.0898171232677 -9.510095837873378 2.3329430906142608 51.043088443819244 -4.527430736786438 6.523138766003262 101.74915569635033 -3.365049563985367 1.6068262830330977 63.96445912714219 14.834992689450514 -18.92558581391876 16.11065343111627 -8.372734850393089 -10.599271969043778 5.174289119394828 16.34487845762779 -15.406463543303758 12.767760002484792 6.950687563581867 -70.4822276949977 -10.26986593934051 5.758634886159932 20.58002160160691 0.5740041787028217 1.183040345368082 14.161622223816384 5.6510235483574816 -0.0000034364975846017807 -11.320786561866024 0.0000010048654335457734 0.8648618761054535 -68.07847279443926 -0.43144270444955957 7.393682330462633 16.571352618236592 1.7870002080807406 0.11215949654343191 7.322667976719819 -2.215183831908323 -4.627479236570379e-9 -1.3822061930948455 6.398839366097572e-7
0.2602751851081848 -0.6296171864542082 2.6395673751831055 5.036782982099726 43.130911338556096 0.7120632299384235 4.554780671305138 13.658440279563965 -0.12893601384297693 3.581414637692123 19.521667183536486 5.527320502005855 0 0 0 -3.07623971158249 -9.793721892023118 3.216592669084991 -19.230027356981505 -66.69298748218439 15.705795093479308 0 0 0 0 0 0 -3.58831921014807 0.6394346128960042 -3.2364495156603037 -50.9013685067755 34.26511109527147 -72.58679701136829 -73.12758773278276 0.525331136642691 0.708305340640177 -27.588213084751246 37.35864904173416 61.988376833408125 4.570051925549386 0.3339056127473745 -7.876833760499364 2.5634729575593043 0.3401878146165692 -20.583583491163026 0.6861123599829058 0.0230379885673942 -10.179091078575599 24.748524374655496 -0.551954683212609 1.749533421627797 4.696382149991561 2.5346409012319504 -66.11545320619129 4.206410521278314 1.6186167649491643 -43.42081594665517 11.786370111307173 1.0545544092049817 -8.30445799250072 1.4496861617006231 0.05983131407486184 -7.225416264423742 1.325684573074221 0.15233683672677212 -12.208722791731532 16.42153327644085 -1.3724238165747569 5.960518656138379 3.501305116778484 1.6330673653892165 -41.704290324633845 0.46948349749833207 0.1198886103983817 -5.609067213782561 -38.91828846762571 -12.802006728776822 24.175671904320218 8.812514650461182 -8.897331190210478 28.371539033356193 12.097957372850741 2.73426511840632 0.5283442479449793 -5.7887540426438635 -0.7807850637731805 -7.715747487367808 90.41822412031414 -44.512761017162894 -80.78803702523513 70.67728052319505 0.4952239091746815 -0.6984264342187304 -35.23870422558793 37.508484968993784 -57.58870130386608 -5.680506550879487 0.2334342601537023 11.265144565560009 -0.7831142585648607 0.018192425938479678 0.009793091869521127 3.0189239945383894 0.7380110347553102 -21.60677848261872 -9.337103066072851 2.038721698714064 51.748983728624 -5.30525912222324 5.677623310101488 103.18250044335046 -3.9053429689516648 0.30325690585790305 63.23268984408715 -8.629106804855294 1.2633272798384203 46.89244448446998 -5.741004674138174 6.355344989782584 106.78064025925413 -4.6445449306266395 2.8974899082147862 65.13986712401528 -9.522562878998722 2.3477756926905786 51.112148050510605 -4.523554568291636 6.534886039810596 101.89161428486328 -3.368823773280641 1.6112814298019416 64.02901023509835 14.924474639657278 -18.803450023959975 16.03320582504627 -8.579072050458418 -10.694164093792104 5.38352083540455 16.271232626779852 -15.334873545378938 12.746513517519322 6.889212013097125 -69.56755234240835 -10.091397920842686 5.579809989967504 21.173672674129985 0.6824877502954299 1.1498522529935862 13.89645549602059 5.638641787071605 0.0000018053470699117396 -11.320808329734394 -0.000003506732851570046 0.8473513854903197 -67.04238567223125 -0.1981732831265473 7.251275759414363 16.979705465382676 1.6288796758908932 0.091141069472637 7.089900909860945 -2.1009588045061873 8.254727043455806e-7 -1.3795817845026725 0.0000012733144902204388
0.2649279832839966 -0.6256832798990324 2.638373613357544 4.92612564422143 42.3147386984388 0.5373444164793377 4.610721511031246 13.603225440422195 -0.13538514856584746 3.5879280159459483 19.298788339490212 5.551187719798609 0 0 0 -3.0803261946857976 -9.648782986972604 3.1946467259583393 -18.736900542433013 -65.88311817206053 15.155733550285891 0 0 0 0 0 0 -3.4523728696394986 0.6342649075646706 -3.22947669411778 -51.10090022349348 34.34902606753521 -72.68990646742898 -73.18335703571766 0.5260328080299519 0.7085147413935363 -27.589489631092775 37.249305055098304 61.82452635231909 4.570051925549386 0.3339056127473745 -7.876833760499364 2.5634729575593043 0.3401878146165692 -20.583583491163026 0.6861123599829058 0.0230379885673942 -10.179091078575599 24.748466291989786 -0.5519235190285502 1.7493730910589547 4.69637491019782 2.5346240226897083 -66.11538118227702 4.2063981699798 1.6185987217815607 -43.420707210347004 11.78634851575425 1.054543094787805 -8.304502072365878 1.4497044052808685 0.05984684876163187 -7.225511569372729 1.325677958076071 0.152332220996683 -12.208697869971608 16.42151004626447 -1.3724047079078538 5.960380553515039 3.5012955258578016 1.6330865831019301 -41.70428295028321 0.4694829639065472 0.11987281555135292 -5.60910238476765 -38.89650323435678 -12.744528938900867 24.050656981537774 8.80397047358136 -8.9078474524727 28.23687593352695 12.055150296471712 2.725556135304619 0.518743208038788 -5.396603789454488 -0.692684499980969 -7.367641519302595 89.09384674893735 -44.28488461184374 -79.16854282763084 70.41375501676445 0.4920069841361472 -0.6972825077329814 -34.8398833158898 37.41421062986033 -57.269674509269954 -5.678919176605125 0.23415002191266937 11.274331005172638 -0.7833292226936651 0.0181969082503485 0.00986459874960584 3.0186924174932366 0.7378697234965736 -21.603897845146296 -9.351604161998416 2.0584436682290295 51.820277323465206 -5.303982378180222 5.686901609383986 103.28928303720491 -3.910181512389514 0.3067723419796468 63.29174305155944 -8.634927732416733 1.268939010046212 46.91838277895802 -5.739593614062412 6.360385507736285 106.84104129266261 -4.645811155585719 2.9002829743349796 65.17499234047484 -9.530323591990667 2.3570542131826215 51.15729240835201 -4.520944315957841 6.542707110029697 101.98646993057389 -3.3714038490233973 1.6143086162534432 64.07306102950412 14.980849145599272 -18.729462861069127 15.98572165591379 -8.708313062003702 -10.75044566639313 5.515083097568589 16.226026973855067 -15.293483108505917 12.732674800848319 6.851818228248813 -68.92451738413153 -9.973429975246892 5.523332186821847 21.56441774853201 0.7905647014426912 1.115148090283778 13.681908521942958 5.613435725264936 -0.000003461349767885624 -11.32078394972193 0.0000018637707136334354 0.7712153690576048 -66.32469311166506 0.0076494045365799465 7.282766283494549 17.24221156424968 1.5839033301863246 0.027687849223139285 6.9199492254497486 -2.0508973190534387 -8.401064488458847e-7 -1.384886009335918 6.462405030864642e-7
